<svg width="91" height="48" viewBox="0 0 91 48" fill="none" xmlns="http://www.w3.org/2000/svg">
<path d="M18.5195 18H32.5195M18.5195 24H32.5195M18.5195 30H32.5195" stroke="white" stroke-width="1.5" stroke-linecap="round"/>
<mask id="mask0_228_439" style="mask-type:luminance" maskUnits="userSpaceOnUse" x="49" y="10" width="29" height="28">
<path d="M63.5195 37.5C70.9754 37.5 77.0195 31.4558 77.0195 24C77.0195 16.5442 70.9754 10.5 63.5195 10.5C56.0637 10.5 50.0195 16.5442 50.0195 24C50.0195 31.4558 56.0637 37.5 63.5195 37.5Z" fill="white" stroke="white"/>
</mask>
<g mask="url(#mask0_228_439)">
<path d="M53.2695 36C53.2695 34.0772 54.0334 32.2331 55.393 30.8735C56.7526 29.5138 58.5967 28.75 60.5195 28.75H66.5195C68.4424 28.75 70.2864 29.5138 71.6461 30.8735C73.0057 32.2331 73.7695 34.0772 73.7695 36V39.111C73.7695 39.6783 73.5442 40.2224 73.143 40.6235C72.7419 41.0246 72.1978 41.25 71.6305 41.25H55.4095C54.8422 41.25 54.2982 41.0246 53.897 40.6235C53.4959 40.2224 53.2705 39.6783 53.2705 39.111L53.2695 36Z" stroke="white" stroke-width="2"/>
<path d="M63.5195 25.25C66.1429 25.25 68.2695 23.1234 68.2695 20.5C68.2695 17.8766 66.1429 15.75 63.5195 15.75C60.8962 15.75 58.7695 17.8766 58.7695 20.5C58.7695 23.1234 60.8962 25.25 63.5195 25.25Z" stroke="white" stroke-width="2"/>
<path d="M63.5195 37.25C70.8373 37.25 76.7695 31.3178 76.7695 24C76.7695 16.6822 70.8373 10.75 63.5195 10.75C56.2018 10.75 50.2695 16.6822 50.2695 24C50.2695 31.3178 56.2018 37.25 63.5195 37.25Z" stroke="white" stroke-width="2"/>
</g>
</svg>
