<svg width="138" height="48" viewBox="0 0 138 48" fill="none" xmlns="http://www.w3.org/2000/svg">
<path fill-rule="evenodd" clip-rule="evenodd" d="M36.9376 25.096L33.3946 27.178L30.1826 23.848L33.4006 20.515L36.9376 22.594C38.1096 23.277 38.1096 24.404 36.9376 25.096ZM32.6326 20.063C31.2566 19.255 29.8826 18.444 28.5086 17.633C25.7966 16.033 23.0846 14.433 20.3626 12.853C20.0876 12.6908 19.7605 12.641 19.4496 12.714L29.5816 23.224L32.6316 20.064L32.6326 20.063ZM28.9806 23.847L18.7146 13.199C18.5646 13.403 18.4746 13.657 18.4746 13.943V33.737C18.4746 34.023 18.5646 34.277 18.7146 34.481L28.9806 23.847ZM19.4506 34.967C19.7466 35.037 20.0746 35 20.3736 34.824L32.6276 27.629L29.5816 24.47L19.4496 34.966L19.4506 34.967Z" fill="white"/>
<path d="M57.5794 24.677V28.527C57.0754 28.891 56.5364 29.164 55.9624 29.346C55.3931 29.5233 54.7677 29.612 54.0864 29.612C53.2791 29.612 52.5511 29.4883 51.9024 29.241C51.2537 28.989 50.6984 28.639 50.2364 28.191C49.7791 27.7383 49.4267 27.197 49.1794 26.567C48.9321 25.937 48.8084 25.244 48.8084 24.488C48.8084 23.7227 48.9274 23.025 49.1654 22.395C49.4081 21.765 49.7511 21.226 50.1944 20.778C50.6377 20.3253 51.1767 19.9753 51.8114 19.728C52.4461 19.4807 53.1554 19.357 53.9394 19.357C54.3361 19.357 54.7047 19.3873 55.0454 19.448C55.3861 19.504 55.7011 19.588 55.9904 19.7C56.2797 19.8073 56.5481 19.9403 56.7954 20.099C57.0427 20.253 57.2737 20.428 57.4884 20.624L57.1034 21.24C57.0427 21.3333 56.9634 21.394 56.8654 21.422C56.7721 21.4453 56.6671 21.422 56.5504 21.352C56.4384 21.2867 56.3101 21.2073 56.1654 21.114C56.0207 21.0207 55.8434 20.932 55.6334 20.848C55.4281 20.7593 55.1831 20.6847 54.8984 20.624C54.6184 20.5633 54.2847 20.533 53.8974 20.533C53.3327 20.533 52.8217 20.6263 52.3644 20.813C51.9071 20.995 51.5174 21.2587 51.1954 21.604C50.8734 21.9447 50.6261 22.36 50.4534 22.85C50.2807 23.3353 50.1944 23.8813 50.1944 24.488C50.1944 25.118 50.2831 25.6827 50.4604 26.182C50.6424 26.6767 50.8991 27.099 51.2304 27.449C51.5664 27.7943 51.9724 28.058 52.4484 28.24C52.9244 28.422 53.4587 28.513 54.0514 28.513C54.5181 28.513 54.9311 28.4617 55.2904 28.359C55.6544 28.2517 56.0091 28.1047 56.3544 27.918V25.713H54.7934C54.7047 25.713 54.6324 25.6873 54.5764 25.636C54.5251 25.5847 54.4994 25.5217 54.4994 25.447V24.677H57.5794ZM62.2709 22.297C62.7889 22.297 63.2556 22.3833 63.6709 22.556C64.0863 22.7287 64.4409 22.9737 64.7349 23.291C65.0289 23.6083 65.2529 23.9933 65.4069 24.446C65.5656 24.894 65.6449 25.3957 65.6449 25.951C65.6449 26.511 65.5656 27.015 65.4069 27.463C65.2529 27.911 65.0289 28.2937 64.7349 28.611C64.4409 28.9283 64.0863 29.1733 63.6709 29.346C63.2556 29.514 62.7889 29.598 62.2709 29.598C61.7483 29.598 61.2769 29.514 60.8569 29.346C60.4416 29.1733 60.0869 28.9283 59.7929 28.611C59.4989 28.2937 59.2726 27.911 59.1139 27.463C58.9599 27.015 58.8829 26.511 58.8829 25.951C58.8829 25.3957 58.9599 24.894 59.1139 24.446C59.2726 23.9933 59.4989 23.6083 59.7929 23.291C60.0869 22.9737 60.4416 22.7287 60.8569 22.556C61.2769 22.3833 61.7483 22.297 62.2709 22.297ZM62.2709 28.625C62.9709 28.625 63.4936 28.3917 63.8389 27.925C64.1843 27.4537 64.3569 26.798 64.3569 25.958C64.3569 25.1133 64.1843 24.4553 63.8389 23.984C63.4936 23.5127 62.9709 23.277 62.2709 23.277C61.9163 23.277 61.6059 23.3377 61.3399 23.459C61.0786 23.5803 60.8593 23.7553 60.6819 23.984C60.5093 24.2127 60.3786 24.495 60.2899 24.831C60.2059 25.1623 60.1639 25.538 60.1639 25.958C60.1639 26.798 60.3366 27.4537 60.6819 27.925C61.0319 28.3917 61.5616 28.625 62.2709 28.625ZM70.2143 22.297C70.7323 22.297 71.1989 22.3833 71.6143 22.556C72.0296 22.7287 72.3843 22.9737 72.6783 23.291C72.9723 23.6083 73.1963 23.9933 73.3503 24.446C73.5089 24.894 73.5883 25.3957 73.5883 25.951C73.5883 26.511 73.5089 27.015 73.3503 27.463C73.1963 27.911 72.9723 28.2937 72.6783 28.611C72.3843 28.9283 72.0296 29.1733 71.6143 29.346C71.1989 29.514 70.7323 29.598 70.2143 29.598C69.6916 29.598 69.2203 29.514 68.8003 29.346C68.3849 29.1733 68.0303 28.9283 67.7363 28.611C67.4423 28.2937 67.2159 27.911 67.0573 27.463C66.9033 27.015 66.8263 26.511 66.8263 25.951C66.8263 25.3957 66.9033 24.894 67.0573 24.446C67.2159 23.9933 67.4423 23.6083 67.7363 23.291C68.0303 22.9737 68.3849 22.7287 68.8003 22.556C69.2203 22.3833 69.6916 22.297 70.2143 22.297ZM70.2143 28.625C70.9143 28.625 71.4369 28.3917 71.7823 27.925C72.1276 27.4537 72.3003 26.798 72.3003 25.958C72.3003 25.1133 72.1276 24.4553 71.7823 23.984C71.4369 23.5127 70.9143 23.277 70.2143 23.277C69.8596 23.277 69.5493 23.3377 69.2833 23.459C69.0219 23.5803 68.8026 23.7553 68.6253 23.984C68.4526 24.2127 68.3219 24.495 68.2333 24.831C68.1493 25.1623 68.1073 25.538 68.1073 25.958C68.1073 26.798 68.2799 27.4537 68.6253 27.925C68.9753 28.3917 69.5049 28.625 70.2143 28.625ZM77.5986 26.035C77.8506 26.035 78.0723 26 78.2636 25.93C78.455 25.86 78.616 25.762 78.7466 25.636C78.8773 25.51 78.9753 25.3607 79.0406 25.188C79.106 25.0107 79.1386 24.817 79.1386 24.607C79.1386 24.173 79.0056 23.8277 78.7396 23.571C78.4783 23.3143 78.098 23.186 77.5986 23.186C77.0946 23.186 76.7096 23.3143 76.4436 23.571C76.1823 23.8277 76.0516 24.173 76.0516 24.607C76.0516 24.817 76.0843 25.0107 76.1496 25.188C76.2196 25.3607 76.32 25.51 76.4506 25.636C76.5813 25.762 76.7423 25.86 76.9336 25.93C77.125 26 77.3466 26.035 77.5986 26.035ZM79.8456 29.885C79.8456 29.7123 79.7966 29.5723 79.6986 29.465C79.6006 29.3577 79.4676 29.2737 79.2996 29.213C79.1363 29.1523 78.945 29.1103 78.7256 29.087C78.5063 29.059 78.273 29.038 78.0256 29.024C77.783 29.01 77.5356 28.996 77.2836 28.982C77.0316 28.968 76.789 28.9447 76.5556 28.912C76.2943 29.0333 76.0796 29.1873 75.9116 29.374C75.7483 29.556 75.6666 29.7707 75.6666 30.018C75.6666 30.1767 75.7063 30.3237 75.7856 30.459C75.8696 30.599 75.9956 30.718 76.1636 30.816C76.3316 30.9187 76.5416 30.998 76.7936 31.054C77.0503 31.1147 77.3513 31.145 77.6966 31.145C78.0326 31.145 78.3336 31.1147 78.5996 31.054C78.8656 30.9933 79.0896 30.907 79.2716 30.795C79.4583 30.683 79.6006 30.55 79.6986 30.396C79.7966 30.242 79.8456 30.0717 79.8456 29.885ZM81.1126 22.689V23.151C81.1126 23.305 81.0146 23.403 80.8186 23.445L80.0136 23.55C80.1723 23.858 80.2516 24.1987 80.2516 24.572C80.2516 24.9173 80.184 25.2323 80.0486 25.517C79.918 25.797 79.736 26.0373 79.5026 26.238C79.2693 26.4387 78.9893 26.5927 78.6626 26.7C78.336 26.8073 77.9813 26.861 77.5986 26.861C77.2673 26.861 76.9546 26.8213 76.6606 26.742C76.5113 26.8353 76.397 26.9357 76.3176 27.043C76.2383 27.1457 76.1986 27.2507 76.1986 27.358C76.1986 27.526 76.2663 27.6543 76.4016 27.743C76.5416 27.827 76.7236 27.8877 76.9476 27.925C77.1716 27.9623 77.426 27.9857 77.7106 27.995C78 28.0043 78.294 28.0207 78.5926 28.044C78.896 28.0627 79.19 28.0977 79.4746 28.149C79.764 28.2003 80.0206 28.2843 80.2446 28.401C80.4686 28.5177 80.6483 28.6787 80.7836 28.884C80.9236 29.0893 80.9936 29.3553 80.9936 29.682C80.9936 29.9853 80.9166 30.2793 80.7626 30.564C80.6133 30.8487 80.3963 31.1007 80.1116 31.32C79.827 31.544 79.477 31.7213 79.0616 31.852C78.651 31.9873 78.1866 32.055 77.6686 32.055C77.1506 32.055 76.698 32.0037 76.3106 31.901C75.9233 31.7983 75.6013 31.6607 75.3446 31.488C75.088 31.3153 74.8943 31.1147 74.7636 30.886C74.6376 30.662 74.5746 30.4263 74.5746 30.179C74.5746 29.829 74.6843 29.5327 74.9036 29.29C75.123 29.0473 75.424 28.8537 75.8066 28.709C75.5966 28.6157 75.4286 28.492 75.3026 28.338C75.1813 28.1793 75.1206 27.967 75.1206 27.701C75.1206 27.5983 75.1393 27.4933 75.1766 27.386C75.214 27.274 75.27 27.1643 75.3446 27.057C75.424 26.945 75.5196 26.84 75.6316 26.742C75.7436 26.644 75.8743 26.5577 76.0236 26.483C75.6736 26.287 75.4006 26.028 75.2046 25.706C75.0086 25.3793 74.9106 25.0013 74.9106 24.572C74.9106 24.2267 74.976 23.914 75.1066 23.634C75.242 23.3493 75.4286 23.109 75.6666 22.913C75.9046 22.7123 76.187 22.5583 76.5136 22.451C76.845 22.3437 77.2066 22.29 77.5986 22.29C77.9066 22.29 78.1936 22.325 78.4596 22.395C78.7256 22.4603 78.9683 22.5583 79.1876 22.689H81.1126ZM83.6891 19.189V29.5H82.4431V19.189H83.6891ZM90.4557 25.181C90.4557 24.8917 90.4137 24.628 90.3297 24.39C90.2503 24.1473 90.1313 23.9397 89.9727 23.767C89.8187 23.5897 89.6297 23.4543 89.4057 23.361C89.1817 23.263 88.9273 23.214 88.6427 23.214C88.0453 23.214 87.5717 23.389 87.2217 23.739C86.8763 24.0843 86.6617 24.565 86.5777 25.181H90.4557ZM91.4637 28.506C91.3097 28.6927 91.1253 28.856 90.9107 28.996C90.696 29.1313 90.465 29.2433 90.2177 29.332C89.975 29.4207 89.723 29.486 89.4617 29.528C89.2003 29.5747 88.9413 29.598 88.6847 29.598C88.1947 29.598 87.742 29.5163 87.3267 29.353C86.916 29.185 86.559 28.9423 86.2557 28.625C85.957 28.303 85.7237 27.9063 85.5557 27.435C85.3877 26.9637 85.3037 26.4223 85.3037 25.811C85.3037 25.3163 85.3783 24.8543 85.5277 24.425C85.6817 23.9957 85.901 23.6247 86.1857 23.312C86.4703 22.9947 86.818 22.7473 87.2287 22.57C87.6393 22.388 88.1013 22.297 88.6147 22.297C89.0393 22.297 89.4313 22.3693 89.7907 22.514C90.1547 22.654 90.4673 22.8593 90.7287 23.13C90.9947 23.396 91.2023 23.7273 91.3517 24.124C91.501 24.516 91.5757 24.964 91.5757 25.468C91.5757 25.664 91.5547 25.7947 91.5127 25.86C91.4707 25.9253 91.3913 25.958 91.2747 25.958H86.5357C86.5497 26.406 86.6103 26.7957 86.7177 27.127C86.8297 27.4583 86.9837 27.736 87.1797 27.96C87.3757 28.1793 87.609 28.345 87.8797 28.457C88.1503 28.5643 88.4537 28.618 88.7897 28.618C89.1023 28.618 89.3707 28.583 89.5947 28.513C89.8233 28.4383 90.0193 28.359 90.1827 28.275C90.346 28.191 90.4813 28.114 90.5887 28.044C90.7007 27.9693 90.7963 27.932 90.8757 27.932C90.9783 27.932 91.0577 27.9717 91.1137 28.051L91.4637 28.506ZM99.9432 24.67C100.331 24.67 100.671 24.6187 100.965 24.516C101.264 24.4133 101.514 24.271 101.714 24.089C101.92 23.9023 102.074 23.6807 102.176 23.424C102.279 23.1673 102.33 22.885 102.33 22.577C102.33 21.9377 102.132 21.4383 101.735 21.079C101.343 20.7197 100.746 20.54 99.9432 20.54H98.3332V24.67H99.9432ZM99.9432 19.469C100.578 19.469 101.129 19.5437 101.595 19.693C102.067 19.8377 102.456 20.0453 102.764 20.316C103.072 20.5867 103.301 20.9133 103.45 21.296C103.604 21.6787 103.681 22.1057 103.681 22.577C103.681 23.0437 103.6 23.4707 103.436 23.858C103.273 24.2453 103.033 24.579 102.715 24.859C102.403 25.139 102.013 25.3583 101.546 25.517C101.084 25.671 100.55 25.748 99.9432 25.748H98.3332V29.5H96.9822V19.469H99.9432ZM106.343 19.189V29.5H105.097V19.189H106.343ZM112.207 26.308C111.633 26.3267 111.143 26.3733 110.737 26.448C110.336 26.518 110.007 26.6113 109.75 26.728C109.498 26.8447 109.314 26.9823 109.197 27.141C109.085 27.2997 109.029 27.477 109.029 27.673C109.029 27.8597 109.059 28.0207 109.12 28.156C109.181 28.2913 109.262 28.4033 109.365 28.492C109.472 28.576 109.596 28.639 109.736 28.681C109.881 28.7183 110.035 28.737 110.198 28.737C110.417 28.737 110.618 28.716 110.8 28.674C110.982 28.6273 111.152 28.562 111.311 28.478C111.474 28.394 111.628 28.2937 111.773 28.177C111.922 28.0603 112.067 27.9273 112.207 27.778V26.308ZM108.182 23.41C108.574 23.032 108.996 22.7497 109.449 22.563C109.902 22.3763 110.403 22.283 110.954 22.283C111.351 22.283 111.703 22.3483 112.011 22.479C112.319 22.6097 112.578 22.7917 112.788 23.025C112.998 23.2583 113.157 23.5407 113.264 23.872C113.371 24.2033 113.425 24.5673 113.425 24.964V29.5H112.872C112.751 29.5 112.657 29.4813 112.592 29.444C112.527 29.402 112.475 29.3227 112.438 29.206L112.298 28.534C112.111 28.7067 111.929 28.8607 111.752 28.996C111.575 29.1267 111.388 29.2387 111.192 29.332C110.996 29.4207 110.786 29.4883 110.562 29.535C110.343 29.5863 110.098 29.612 109.827 29.612C109.552 29.612 109.293 29.5747 109.05 29.5C108.807 29.4207 108.595 29.304 108.413 29.15C108.236 28.996 108.093 28.8023 107.986 28.569C107.883 28.331 107.832 28.051 107.832 27.729C107.832 27.449 107.909 27.1807 108.063 26.924C108.217 26.6627 108.467 26.4317 108.812 26.231C109.157 26.0303 109.608 25.867 110.163 25.741C110.718 25.6103 111.4 25.5357 112.207 25.517V24.964C112.207 24.4133 112.088 23.998 111.85 23.718C111.612 23.4333 111.264 23.291 110.807 23.291C110.499 23.291 110.24 23.3307 110.03 23.41C109.825 23.4847 109.645 23.571 109.491 23.669C109.342 23.7623 109.211 23.8487 109.099 23.928C108.992 24.0027 108.884 24.04 108.777 24.04C108.693 24.04 108.621 24.019 108.56 23.977C108.499 23.9303 108.448 23.8743 108.406 23.809L108.182 23.41ZM121.277 22.409L117.322 31.593C117.28 31.6863 117.226 31.761 117.161 31.817C117.1 31.873 117.005 31.901 116.874 31.901H115.95L117.245 29.087L114.319 22.409H115.397C115.504 22.409 115.588 22.437 115.649 22.493C115.714 22.5443 115.759 22.6027 115.782 22.668L117.679 27.134C117.754 27.33 117.817 27.5353 117.868 27.75C117.933 27.5307 118.003 27.323 118.078 27.127L119.919 22.668C119.947 22.5933 119.994 22.5327 120.059 22.486C120.129 22.4347 120.206 22.409 120.29 22.409H121.277Z" fill="white"/>
</svg>
