<svg width="122" height="48" viewBox="0 0 122 48" fill="none" xmlns="http://www.w3.org/2000/svg">
<g filter="url(#filter0_d_228_431)">
<path fill-rule="evenodd" clip-rule="evenodd" d="M30.4582 10.875C30.5551 12.1444 30.1546 13.4017 29.3412 14.381C28.9522 14.8659 28.4582 15.2563 27.8965 15.5227C27.3347 15.7891 26.7199 15.9246 26.0982 15.919C26.0184 14.6861 26.4305 13.4718 27.2442 12.542C28.0675 11.6015 29.2152 11.0062 30.4582 10.875ZM32.7252 20.118C32.3121 20.8476 32.0899 21.6697 32.0792 22.508C32.0792 23.451 32.3582 24.373 32.8782 25.159C33.3982 25.945 34.1382 26.559 35.0042 26.927C34.6636 28.0363 34.1499 29.0849 33.4822 30.034C32.5862 31.378 31.6462 32.691 30.1552 32.715C29.4452 32.732 28.9672 32.527 28.4682 32.314C27.9482 32.092 27.4052 31.86 26.5562 31.86C25.6562 31.86 25.0902 32.1 24.5432 32.33C24.0712 32.529 23.6132 32.722 22.9692 32.749C21.5492 32.801 20.4632 31.314 19.5342 29.983C17.6782 27.263 16.2322 22.32 18.1702 18.957C18.6174 18.1522 19.2654 17.4769 20.0509 16.9968C20.8365 16.5166 21.733 16.248 22.6532 16.217C23.4582 16.2 24.2312 16.511 24.9092 16.784C25.4272 16.993 25.8902 17.179 26.2692 17.179C26.6022 17.179 27.0522 17 27.5762 16.792C28.4012 16.463 29.4112 16.062 30.4412 16.17C31.2307 16.1944 32.0036 16.4031 32.6981 16.7794C33.3926 17.1556 33.9895 17.689 34.4412 18.337C33.7282 18.7765 33.1378 19.3891 32.7252 20.118Z" fill="white"/>
<path d="M50.608 25.776L49.033 21.695C48.9863 21.5737 48.9373 21.4337 48.886 21.275C48.8347 21.1117 48.7857 20.939 48.739 20.757C48.641 21.135 48.5407 21.45 48.438 21.702L46.863 25.776H50.608ZM53.436 29.5H52.386C52.2647 29.5 52.1667 29.4697 52.092 29.409C52.0173 29.3483 51.9613 29.2713 51.924 29.178L50.986 26.756H46.485L45.547 29.178C45.519 29.262 45.4653 29.3367 45.386 29.402C45.3067 29.4673 45.2087 29.5 45.092 29.5H44.042L48.053 19.469H49.425L53.436 29.5ZM55.6873 27.792C55.9159 28.1 56.1656 28.317 56.4363 28.443C56.7069 28.569 57.0103 28.632 57.3463 28.632C58.0089 28.632 58.5176 28.3963 58.8723 27.925C59.2269 27.4537 59.4043 26.7817 59.4043 25.909C59.4043 25.447 59.3623 25.0503 59.2783 24.719C59.1989 24.3877 59.0823 24.117 58.9283 23.907C58.7743 23.6923 58.5853 23.536 58.3613 23.438C58.1373 23.34 57.8829 23.291 57.5983 23.291C57.1923 23.291 56.8353 23.3843 56.5273 23.571C56.2239 23.7577 55.9439 24.0213 55.6873 24.362V27.792ZM55.6243 23.508C55.9229 23.1393 56.2683 22.843 56.6603 22.619C57.0523 22.395 57.5003 22.283 58.0043 22.283C58.4149 22.283 58.7859 22.3623 59.1173 22.521C59.4486 22.675 59.7309 22.906 59.9643 23.214C60.1976 23.5173 60.3773 23.8953 60.5033 24.348C60.6293 24.8007 60.6923 25.321 60.6923 25.909C60.6923 26.4317 60.6223 26.9193 60.4823 27.372C60.3423 27.82 60.1393 28.2097 59.8733 28.541C59.6119 28.8677 59.2899 29.1267 58.9073 29.318C58.5293 29.5047 58.1023 29.598 57.6263 29.598C57.1923 29.598 56.8189 29.5257 56.5063 29.381C56.1983 29.2317 55.9253 29.0263 55.6873 28.765V31.901H54.4343V22.409H55.1833C55.3606 22.409 55.4703 22.4953 55.5123 22.668L55.6243 23.508ZM63.5349 27.792C63.7636 28.1 64.0133 28.317 64.2839 28.443C64.5546 28.569 64.8579 28.632 65.1939 28.632C65.8566 28.632 66.3653 28.3963 66.7199 27.925C67.0746 27.4537 67.2519 26.7817 67.2519 25.909C67.2519 25.447 67.2099 25.0503 67.1259 24.719C67.0466 24.3877 66.9299 24.117 66.7759 23.907C66.6219 23.6923 66.4329 23.536 66.2089 23.438C65.9849 23.34 65.7306 23.291 65.4459 23.291C65.0399 23.291 64.6829 23.3843 64.3749 23.571C64.0716 23.7577 63.7916 24.0213 63.5349 24.362V27.792ZM63.4719 23.508C63.7706 23.1393 64.1159 22.843 64.5079 22.619C64.8999 22.395 65.3479 22.283 65.8519 22.283C66.2626 22.283 66.6336 22.3623 66.9649 22.521C67.2963 22.675 67.5786 22.906 67.8119 23.214C68.0453 23.5173 68.2249 23.8953 68.3509 24.348C68.4769 24.8007 68.5399 25.321 68.5399 25.909C68.5399 26.4317 68.4699 26.9193 68.3299 27.372C68.1899 27.82 67.9869 28.2097 67.7209 28.541C67.4596 28.8677 67.1376 29.1267 66.7549 29.318C66.3769 29.5047 65.9499 29.598 65.4739 29.598C65.0399 29.598 64.6666 29.5257 64.3539 29.381C64.0459 29.2317 63.7729 29.0263 63.5349 28.765V31.901H62.2819V22.409H63.0309C63.2083 22.409 63.3179 22.4953 63.3599 22.668L63.4719 23.508ZM79.1366 21.037C79.0946 21.107 79.0479 21.1607 78.9966 21.198C78.9499 21.2307 78.8916 21.247 78.8216 21.247C78.7423 21.247 78.6489 21.2073 78.5416 21.128C78.4343 21.0487 78.2989 20.9623 78.1356 20.869C77.9769 20.771 77.7833 20.6823 77.5546 20.603C77.3306 20.5237 77.0576 20.484 76.7356 20.484C76.4323 20.484 76.1639 20.526 75.9306 20.61C75.7019 20.6893 75.5083 20.799 75.3496 20.939C75.1956 21.079 75.0789 21.2447 74.9996 21.436C74.9203 21.6227 74.8806 21.8257 74.8806 22.045C74.8806 22.325 74.9483 22.5583 75.0836 22.745C75.2236 22.927 75.4056 23.0833 75.6296 23.214C75.8583 23.3447 76.1149 23.459 76.3996 23.557C76.6889 23.6503 76.9829 23.7483 77.2816 23.851C77.5849 23.9537 77.8789 24.0703 78.1636 24.201C78.4529 24.327 78.7096 24.488 78.9336 24.684C79.1623 24.88 79.3443 25.1203 79.4796 25.405C79.6196 25.6897 79.6896 26.0397 79.6896 26.455C79.6896 26.8937 79.6149 27.3067 79.4656 27.694C79.3163 28.0767 79.0969 28.4103 78.8076 28.695C78.5229 28.9797 78.1706 29.2037 77.7506 29.367C77.3353 29.5303 76.8616 29.612 76.3296 29.612C75.6763 29.612 75.0836 29.4953 74.5516 29.262C74.0196 29.024 73.5646 28.7043 73.1866 28.303L73.5786 27.659C73.6159 27.6077 73.6603 27.5657 73.7116 27.533C73.7676 27.4957 73.8283 27.477 73.8936 27.477C73.9543 27.477 74.0219 27.5027 74.0966 27.554C74.1759 27.6007 74.2646 27.6613 74.3626 27.736C74.4606 27.8107 74.5726 27.8923 74.6986 27.981C74.8246 28.0697 74.9669 28.1513 75.1256 28.226C75.2889 28.3007 75.4733 28.3637 75.6786 28.415C75.8839 28.4617 76.1149 28.485 76.3716 28.485C76.6936 28.485 76.9806 28.4407 77.2326 28.352C77.4846 28.2633 77.6969 28.1397 77.8696 27.981C78.0469 27.8177 78.1823 27.624 78.2756 27.4C78.3689 27.176 78.4156 26.9263 78.4156 26.651C78.4156 26.3477 78.3456 26.1003 78.2056 25.909C78.0703 25.713 77.8906 25.5497 77.6666 25.419C77.4426 25.2883 77.1859 25.1787 76.8966 25.09C76.6073 24.9967 76.3133 24.9033 76.0146 24.81C75.7159 24.712 75.4219 24.6 75.1326 24.474C74.8433 24.348 74.5866 24.1847 74.3626 23.984C74.1386 23.7833 73.9566 23.5337 73.8166 23.235C73.6813 22.9317 73.6136 22.5583 73.6136 22.115C73.6136 21.7603 73.6813 21.4173 73.8166 21.086C73.9566 20.7547 74.1573 20.4607 74.4186 20.204C74.6846 19.9473 75.0089 19.742 75.3916 19.588C75.7789 19.434 76.2223 19.357 76.7216 19.357C77.2816 19.357 77.7903 19.4457 78.2476 19.623C78.7096 19.8003 79.1156 20.057 79.4656 20.393L79.1366 21.037ZM83.1757 29.612C82.6157 29.612 82.1841 29.4557 81.8807 29.143C81.5821 28.8303 81.4327 28.38 81.4327 27.792V23.452H80.5787C80.5041 23.452 80.4411 23.431 80.3897 23.389C80.3384 23.3423 80.3127 23.2723 80.3127 23.179V22.682L81.4747 22.535L81.7617 20.344C81.7757 20.274 81.8061 20.218 81.8527 20.176C81.9041 20.1293 81.9694 20.106 82.0487 20.106H82.6787V22.549H84.7297V23.452H82.6787V27.708C82.6787 28.0067 82.7511 28.2283 82.8957 28.373C83.0404 28.5177 83.2271 28.59 83.4557 28.59C83.5864 28.59 83.6984 28.5737 83.7917 28.541C83.8897 28.5037 83.9737 28.464 84.0437 28.422C84.1137 28.38 84.1721 28.3427 84.2187 28.31C84.2701 28.2727 84.3144 28.254 84.3517 28.254C84.4171 28.254 84.4754 28.2937 84.5267 28.373L84.8907 28.968C84.6761 29.1687 84.4171 29.3273 84.1137 29.444C83.8104 29.556 83.4977 29.612 83.1757 29.612ZM88.9643 22.297C89.4823 22.297 89.9489 22.3833 90.3643 22.556C90.7796 22.7287 91.1343 22.9737 91.4283 23.291C91.7223 23.6083 91.9463 23.9933 92.1003 24.446C92.2589 24.894 92.3383 25.3957 92.3383 25.951C92.3383 26.511 92.2589 27.015 92.1003 27.463C91.9463 27.911 91.7223 28.2937 91.4283 28.611C91.1343 28.9283 90.7796 29.1733 90.3643 29.346C89.9489 29.514 89.4823 29.598 88.9643 29.598C88.4416 29.598 87.9703 29.514 87.5503 29.346C87.1349 29.1733 86.7803 28.9283 86.4863 28.611C86.1923 28.2937 85.9659 27.911 85.8073 27.463C85.6533 27.015 85.5763 26.511 85.5763 25.951C85.5763 25.3957 85.6533 24.894 85.8073 24.446C85.9659 23.9933 86.1923 23.6083 86.4863 23.291C86.7803 22.9737 87.1349 22.7287 87.5503 22.556C87.9703 22.3833 88.4416 22.297 88.9643 22.297ZM88.9643 28.625C89.6643 28.625 90.1869 28.3917 90.5323 27.925C90.8776 27.4537 91.0503 26.798 91.0503 25.958C91.0503 25.1133 90.8776 24.4553 90.5323 23.984C90.1869 23.5127 89.6643 23.277 88.9643 23.277C88.6096 23.277 88.2993 23.3377 88.0333 23.459C87.7719 23.5803 87.5526 23.7553 87.3753 23.984C87.2026 24.2127 87.0719 24.495 86.9833 24.831C86.8993 25.1623 86.8573 25.538 86.8573 25.958C86.8573 26.798 87.0299 27.4537 87.3753 27.925C87.7253 28.3917 88.2549 28.625 88.9643 28.625ZM95.1016 23.83C95.3256 23.3447 95.601 22.9667 95.9276 22.696C96.2543 22.4207 96.6533 22.283 97.1246 22.283C97.274 22.283 97.4163 22.2993 97.5516 22.332C97.6916 22.3647 97.8153 22.416 97.9226 22.486L97.8316 23.417C97.8036 23.5337 97.7336 23.592 97.6216 23.592C97.5563 23.592 97.4606 23.578 97.3346 23.55C97.2086 23.522 97.0663 23.508 96.9076 23.508C96.6836 23.508 96.483 23.5407 96.3056 23.606C96.133 23.6713 95.9766 23.7693 95.8366 23.9C95.7013 24.026 95.5776 24.1847 95.4656 24.376C95.3583 24.5627 95.2603 24.7773 95.1716 25.02V29.5H93.9186V22.409H94.6326C94.768 22.409 94.8613 22.4347 94.9126 22.486C94.964 22.5373 94.999 22.626 95.0176 22.752L95.1016 23.83ZM103.477 25.181C103.477 24.8917 103.435 24.628 103.351 24.39C103.272 24.1473 103.153 23.9397 102.994 23.767C102.84 23.5897 102.651 23.4543 102.427 23.361C102.203 23.263 101.949 23.214 101.664 23.214C101.067 23.214 100.593 23.389 100.243 23.739C99.8978 24.0843 99.6831 24.565 99.5991 25.181H103.477ZM104.485 28.506C104.331 28.6927 104.147 28.856 103.932 28.996C103.717 29.1313 103.486 29.2433 103.239 29.332C102.996 29.4207 102.744 29.486 102.483 29.528C102.222 29.5747 101.963 29.598 101.706 29.598C101.216 29.598 100.763 29.5163 100.348 29.353C99.9375 29.185 99.5805 28.9423 99.2771 28.625C98.9785 28.303 98.7451 27.9063 98.5771 27.435C98.4091 26.9637 98.3251 26.4223 98.3251 25.811C98.3251 25.3163 98.3998 24.8543 98.5491 24.425C98.7031 23.9957 98.9225 23.6247 99.2071 23.312C99.4918 22.9947 99.8395 22.7473 100.25 22.57C100.661 22.388 101.123 22.297 101.636 22.297C102.061 22.297 102.453 22.3693 102.812 22.514C103.176 22.654 103.489 22.8593 103.75 23.13C104.016 23.396 104.224 23.7273 104.373 24.124C104.522 24.516 104.597 24.964 104.597 25.468C104.597 25.664 104.576 25.7947 104.534 25.86C104.492 25.9253 104.413 25.958 104.296 25.958H99.5571C99.5711 26.406 99.6318 26.7957 99.7391 27.127C99.8511 27.4583 100.005 27.736 100.201 27.96C100.397 28.1793 100.63 28.345 100.901 28.457C101.172 28.5643 101.475 28.618 101.811 28.618C102.124 28.618 102.392 28.583 102.616 28.513C102.845 28.4383 103.041 28.359 103.204 28.275C103.367 28.191 103.503 28.114 103.61 28.044C103.722 27.9693 103.818 27.932 103.897 27.932C104 27.932 104.079 27.9717 104.135 28.051L104.485 28.506Z" fill="white"/>
</g>
<defs>
<filter id="filter0_d_228_431" x="-4" y="0" width="129.14" height="56" filterUnits="userSpaceOnUse" color-interpolation-filters="sRGB">
<feFlood flood-opacity="0" result="BackgroundImageFix"/>
<feColorMatrix in="SourceAlpha" type="matrix" values="0 0 0 0 0 0 0 0 0 0 0 0 0 0 0 0 0 0 127 0" result="hardAlpha"/>
<feOffset dy="4"/>
<feGaussianBlur stdDeviation="2"/>
<feComposite in2="hardAlpha" operator="out"/>
<feColorMatrix type="matrix" values="0 0 0 0 0 0 0 0 0 0 0 0 0 0 0 0 0 0 0.25 0"/>
<feBlend mode="normal" in2="BackgroundImageFix" result="effect1_dropShadow_228_431"/>
<feBlend mode="normal" in="SourceGraphic" in2="effect1_dropShadow_228_431" result="shape"/>
</filter>
</defs>
</svg>
