<svg width="33" height="46" viewBox="0 0 33 46" fill="none" xmlns="http://www.w3.org/2000/svg">
<path fill-rule="evenodd" clip-rule="evenodd" d="M0 16.4999C0 7.40185 7.40185 0 16.5 0C25.5981 0 32.9998 7.40185 33 16.4999C33 27.7909 18.2341 44.3667 17.6054 45.0668C17.016 45.7234 15.9851 45.7245 15.3946 45.0668C14.7659 44.3667 0 27.7909 0 16.4999ZM8.1967 16.4999C8.1967 21.0774 11.9207 24.8015 16.4982 24.8015C21.0756 24.8015 24.7996 21.0775 24.7996 16.5C24.7996 11.9225 21.0756 8.19845 16.4982 8.19845C11.9208 8.19845 8.1967 11.9224 8.1967 16.4999Z" fill="#3FECF8"/>
</svg>
