<svg width="131" height="42" viewBox="0 0 131 42" fill="none" xmlns="http://www.w3.org/2000/svg">
<path d="M4.48338 32H0.331375V12.296H4.48338V15.704H4.36338C4.44338 15.288 4.73938 14.768 5.25138 14.144C5.76338 13.52 6.46738 12.96 7.36338 12.464C8.25938 11.968 9.33138 11.72 10.5794 11.72C11.4914 11.72 12.2914 11.848 12.9794 12.104C13.6834 12.344 14.1794 12.584 14.4674 12.824L12.7634 16.28C12.5394 16.056 12.1474 15.832 11.5874 15.608C11.0274 15.368 10.3314 15.248 9.49938 15.248C8.44338 15.248 7.53938 15.576 6.78738 16.232C6.03538 16.888 5.45938 17.68 5.05938 18.608C4.67538 19.52 4.48338 20.368 4.48338 21.152V32ZM25.3446 28.184L31.9926 12.296H36.1686L22.8726 41.984H18.6486L23.1126 32L15.0006 12.296H19.2486L25.3446 28.184ZM50.3485 11.72C51.6445 11.72 52.9005 11.992 54.1165 12.536C55.3485 13.08 56.3565 13.944 57.1405 15.128C57.9405 16.296 58.3405 17.824 58.3405 19.712V32H54.1165V20.528C54.1165 18.576 53.6605 17.16 52.7485 16.28C51.8365 15.384 50.6605 14.936 49.2205 14.936C48.2765 14.936 47.3645 15.208 46.4845 15.752C45.6205 16.28 44.9085 17.016 44.3485 17.96C43.7885 18.888 43.5085 19.944 43.5085 21.128V32H39.3325V12.296H43.5085V15.8C43.6525 15.256 44.0445 14.664 44.6845 14.024C45.3245 13.384 46.1405 12.84 47.1325 12.392C48.1245 11.944 49.1965 11.72 50.3485 11.72ZM70.4733 4.04H61.9293V0.319999H83.1453V4.04H74.6013V32H70.4733V4.04ZM99.5163 32V28.16C99.3883 28.56 99.0123 29.112 98.3883 29.816C97.7803 30.52 96.9403 31.16 95.8683 31.736C94.8123 32.296 93.5643 32.576 92.1243 32.576C90.3003 32.576 88.6443 32.144 87.1562 31.28C85.6843 30.416 84.5083 29.208 83.6283 27.656C82.7643 26.088 82.3323 24.256 82.3323 22.16C82.3323 20.064 82.7643 18.24 83.6283 16.688C84.5083 15.12 85.6843 13.904 87.1562 13.04C88.6443 12.16 90.3003 11.72 92.1243 11.72C93.5483 11.72 94.7803 11.976 95.8203 12.488C96.8763 13 97.7163 13.592 98.3403 14.264C98.9803 14.936 99.3563 15.512 99.4683 15.992V12.296H103.596V32H99.5163ZM86.4603 22.16C86.4603 23.584 86.7723 24.816 87.3963 25.856C88.0203 26.896 88.8283 27.704 89.8203 28.28C90.8283 28.84 91.9003 29.12 93.0363 29.12C94.2523 29.12 95.3403 28.832 96.3003 28.256C97.2603 27.68 98.0203 26.872 98.5803 25.832C99.1403 24.776 99.4203 23.552 99.4203 22.16C99.4203 20.768 99.1403 19.552 98.5803 18.512C98.0203 17.456 97.2603 16.64 96.3003 16.064C95.3403 15.472 94.2523 15.176 93.0363 15.176C91.9003 15.176 90.8283 15.464 89.8203 16.04C88.8283 16.616 88.0203 17.424 87.3963 18.464C86.7723 19.504 86.4603 20.736 86.4603 22.16ZM113.4 41.984H109.248V12.296H113.472V15.992C113.616 15.496 114.016 14.912 114.672 14.24C115.328 13.568 116.208 12.984 117.312 12.488C118.432 11.976 119.712 11.72 121.152 11.72C122.976 11.72 124.592 12.16 126 13.04C127.424 13.904 128.536 15.12 129.336 16.688C130.152 18.24 130.56 20.064 130.56 22.16C130.56 24.256 130.144 26.088 129.312 27.656C128.48 29.208 127.344 30.416 125.904 31.28C124.48 32.144 122.848 32.576 121.008 32.576C119.52 32.576 118.216 32.296 117.096 31.736C115.992 31.176 115.12 30.544 114.48 29.84C113.856 29.136 113.496 28.576 113.4 28.16V41.984ZM126.432 22.16C126.432 20.736 126.136 19.504 125.544 18.464C124.968 17.424 124.2 16.616 123.24 16.04C122.28 15.464 121.24 15.176 120.12 15.176C118.888 15.176 117.768 15.472 116.76 16.064C115.752 16.64 114.952 17.456 114.36 18.512C113.768 19.552 113.472 20.768 113.472 22.16C113.472 23.552 113.768 24.776 114.36 25.832C114.952 26.872 115.752 27.68 116.76 28.256C117.768 28.832 118.888 29.12 120.12 29.12C121.24 29.12 122.28 28.84 123.24 28.28C124.2 27.704 124.968 26.896 125.544 25.856C126.136 24.816 126.432 23.584 126.432 22.16Z" fill="white"/>
</svg>
